<?xml version="1.0" standalone="no"?><!DOCTYPE svg PUBLIC "-//W3C//DTD SVG 1.1//EN" "http://www.w3.org/Graphics/SVG/1.1/DTD/svg11.dtd"><svg t="1778742098804" class="icon" viewBox="0 0 1024 1024" version="1.1" xmlns="http://www.w3.org/2000/svg" p-id="3713" xmlns:xlink="http://www.w3.org/1999/xlink" width="24" height="24"><path d="M877.714286 950.857143c40.301714 0 73.142857-30.72 73.142857-68.534857v-171.885715l-178.322286-110.957714-331.337143 228.717714-219.501714-137.874285L73.142857 781.531429v100.790857c0 37.814857 32.768 68.534857 73.142857 68.534857h731.428572M437.979429 479.232l324.754285-217.453714L950.857143 380.562286V146.285714c0-40.374857-32.841143-73.142857-73.142857-73.142857H146.285714c-40.374857 0-73.142857 32.768-73.142857 73.142857v300.251429l146.651429-100.205714 218.185143 132.900571M877.714286 1024H146.285714c-80.749714 0-146.285714-63.488-146.285714-141.677714v-141.677715L222.061714 604.16l217.234286 136.411429L770.486857 512 1024 669.769143v212.553143c0 78.262857-65.462857 141.677714-146.285714 141.677714zM0 585.142857V146.285714a146.285714 146.285714 0 0 1 146.285714-146.285714h731.428572a146.285714 146.285714 0 0 1 146.285714 146.285714v366.957715l-260.096-164.205715-324.022857 217.014857-217.819429-132.754285L0 585.142857z" fill="#6A6A6A" p-id="3714"></path></svg>