<?xml version="1.0" standalone="no"?><!DOCTYPE svg PUBLIC "-//W3C//DTD SVG 1.1//EN" "http://www.w3.org/Graphics/SVG/1.1/DTD/svg11.dtd"><svg t="1780975030199" class="icon" viewBox="0 0 1024 1024" version="1.1" xmlns="http://www.w3.org/2000/svg" p-id="7952" xmlns:xlink="http://www.w3.org/1999/xlink" width="24" height="24"><path d="M495.27808 565.43232c-155.19744 0-281.46688-126.26432-281.46688-281.46688C213.8112 128.768 340.08064 2.50368 495.27808 2.50368s281.46688 126.26432 281.46688 281.46176c0 155.19744-126.26944 281.46688-281.46688 281.46688z m0-482.51392c-110.85312 0-201.04192 90.1888-201.04192 201.04192 0 110.85824 90.1888 201.05216 201.04192 201.05216 110.85824 0 201.04192-90.19392 201.04192-201.05216 0-110.848-90.18368-201.04192-201.04192-201.04192z" fill="" p-id="7953"></path><path d="M495.27808 1023.89248H0v-40.20736c0-275.15904 223.85664-499.0208 499.0208-499.0208 111.52896 0 220.55936 37.71904 308.03456 106.3936 2.2528 1.77152 4.49536 3.5584 6.72256 5.37088l-50.75456 62.38208c-74.28096-60.44672-168.03328-93.72672-264.00256-93.72672-217.25184 0-396.37504 166.36928-416.68608 378.38848h412.94336v80.41984zM646.68672 840.25344H960v79.87712h-313.31328z" fill="" p-id="7954"></path><path d="M763.40736 736.384h79.87712V1024h-79.87712z" fill="" p-id="7955"></path></svg>